<svg width="1200" height="760" viewBox="0 0 1200 760" fill="none" xmlns="http://www.w3.org/2000/svg">
  <rect width="1200" height="760" fill="#f1f5f9"/>
  <rect x="0" y="0" width="250" height="760" fill="#ffffff"/>
  <text x="34" y="54" fill="#0e7490" font-family="Arial" font-size="14" font-weight="700">SMARTSTORE</text>
  <text x="34" y="90" fill="#0f172a" font-family="Arial" font-size="28" font-weight="900">SmartStore Demo</text>
  <rect x="28" y="138" width="194" height="46" rx="8" fill="#0f172a"/>
  <text x="52" y="167" fill="#ffffff" font-family="Arial" font-size="15" font-weight="700">Dashboard</text>
  <text x="52" y="224" fill="#64748b" font-family="Arial" font-size="15" font-weight="700">Products</text>
  <text x="52" y="274" fill="#64748b" font-family="Arial" font-size="15" font-weight="700">AI Studio</text>
  <text x="52" y="324" fill="#64748b" font-family="Arial" font-size="15" font-weight="700">Sales Insights</text>
  <rect x="250" y="0" width="950" height="86" fill="#ffffff"/>
  <text x="294" y="34" fill="#64748b" font-family="Arial" font-size="14" font-weight="700">Welcome, Demo Owner</text>
  <text x="294" y="64" fill="#0f172a" font-family="Arial" font-size="27" font-weight="900">AI E-commerce Admin Assistant</text>
  <rect x="955" y="25" width="130" height="40" rx="8" fill="#0f172a"/>
  <text x="984" y="51" fill="#ffffff" font-family="Arial" font-size="14" font-weight="800">Add product</text>
  <rect x="292" y="126" width="154" height="110" rx="12" fill="#ffffff" stroke="#e2e8f0"/>
  <text x="316" y="160" fill="#64748b" font-family="Arial" font-size="14" font-weight="800">Revenue</text>
  <text x="316" y="204" fill="#0f172a" font-family="Arial" font-size="30" font-weight="900">Rs 541k</text>
  <rect x="468" y="126" width="154" height="110" rx="12" fill="#ffffff" stroke="#e2e8f0"/>
  <text x="492" y="160" fill="#64748b" font-family="Arial" font-size="14" font-weight="800">Profit</text>
  <text x="492" y="204" fill="#0f172a" font-family="Arial" font-size="30" font-weight="900">Rs 223k</text>
  <rect x="644" y="126" width="154" height="110" rx="12" fill="#ffffff" stroke="#e2e8f0"/>
  <text x="668" y="160" fill="#64748b" font-family="Arial" font-size="14" font-weight="800">Products</text>
  <text x="668" y="204" fill="#0f172a" font-family="Arial" font-size="30" font-weight="900">3</text>
  <rect x="820" y="126" width="154" height="110" rx="12" fill="#ffffff" stroke="#e2e8f0"/>
  <text x="844" y="160" fill="#64748b" font-family="Arial" font-size="14" font-weight="800">Stock units</text>
  <text x="844" y="204" fill="#0f172a" font-family="Arial" font-size="30" font-weight="900">27</text>
  <rect x="996" y="126" width="154" height="110" rx="12" fill="#fff1f2" stroke="#fecdd3"/>
  <text x="1020" y="160" fill="#991b1b" font-family="Arial" font-size="14" font-weight="800">Low stock</text>
  <text x="1020" y="204" fill="#0f172a" font-family="Arial" font-size="30" font-weight="900">1</text>
  <rect x="292" y="266" width="540" height="310" rx="12" fill="#ffffff" stroke="#e2e8f0"/>
  <text x="320" y="308" fill="#0f172a" font-family="Arial" font-size="22" font-weight="900">Revenue analytics</text>
  <polyline points="330,512 415,486 500,462 585,423 670,390 755,342" stroke="#0891b2" stroke-width="5" fill="none"/>
  <circle cx="330" cy="512" r="6" fill="#0891b2"/>
  <circle cx="415" cy="486" r="6" fill="#0891b2"/>
  <circle cx="500" cy="462" r="6" fill="#0891b2"/>
  <circle cx="585" cy="423" r="6" fill="#0891b2"/>
  <circle cx="670" cy="390" r="6" fill="#0891b2"/>
  <circle cx="755" cy="342" r="6" fill="#0891b2"/>
  <rect x="860" y="266" width="290" height="310" rx="12" fill="#ffffff" stroke="#e2e8f0"/>
  <text x="888" y="308" fill="#0f172a" font-family="Arial" font-size="22" font-weight="900">Category revenue</text>
  <rect x="900" y="454" width="44" height="82" rx="6" fill="#0f172a"/>
  <rect x="968" y="392" width="44" height="144" rx="6" fill="#0891b2"/>
  <rect x="1036" y="342" width="44" height="194" rx="6" fill="#16a34a"/>
  <rect x="292" y="606" width="858" height="104" rx="12" fill="#ffffff" stroke="#e2e8f0"/>
  <text x="320" y="648" fill="#0f172a" font-family="Arial" font-size="22" font-weight="900">Top products</text>
  <text x="320" y="684" fill="#334155" font-family="Arial" font-size="16" font-weight="700">AeroFit Smart Watch   Rs 286,918   82 sold   8 stock</text>
</svg>
